<svg width="32" height="32" viewBox="0 0 32 32" fill="none" xmlns="http://www.w3.org/2000/svg">
<rect width="32" height="32" rx="16" fill="#FBDFB1"/>
<g filter="url(#filter0_i_2243_7682)">
<circle cx="16" cy="16" r="16" fill="#FBDFB1"/>
</g>
<path d="M18.167 13.4929C18.114 13.0223 17.8952 12.6577 17.5107 12.3991C17.1263 12.1373 16.6424 12.0064 16.059 12.0064C15.6414 12.0064 15.2802 12.0727 14.9752 12.2053C14.6703 12.3345 14.4333 12.5135 14.2643 12.7422C14.0986 12.9676 14.0157 13.2244 14.0157 13.5128C14.0157 13.7547 14.0721 13.9635 14.1847 14.1392C14.3008 14.3149 14.4516 14.4624 14.6372 14.5817C14.8261 14.6977 15.0283 14.7955 15.2437 14.875C15.4591 14.9512 15.6663 15.0142 15.8651 15.0639L16.8595 15.3224C17.1843 15.402 17.5174 15.5097 17.8588 15.6456C18.2001 15.7815 18.5167 15.9605 18.8083 16.1825C19.1 16.4046 19.3353 16.6797 19.5143 17.0078C19.6966 17.3359 19.7877 17.7287 19.7877 18.1861C19.7877 18.7628 19.6386 19.2749 19.3403 19.7223C19.0453 20.1697 18.6161 20.5227 18.0526 20.7812C17.4925 21.0398 16.8147 21.169 16.0193 21.169C15.257 21.169 14.5974 21.0481 14.0406 20.8061C13.4838 20.5642 13.0479 20.2211 12.733 19.777C12.4182 19.3295 12.2442 18.7992 12.211 18.1861H13.7522C13.782 18.554 13.9014 18.8606 14.1102 19.1058C14.3223 19.3478 14.5924 19.5284 14.9205 19.6477C15.252 19.7637 15.6149 19.8217 16.0093 19.8217C16.4435 19.8217 16.8296 19.7538 17.1677 19.6179C17.5091 19.4787 17.7776 19.2865 17.9731 19.0412C18.1686 18.7926 18.2664 18.5026 18.2664 18.1712C18.2664 17.8696 18.1802 17.6226 18.0079 17.4304C17.8389 17.2382 17.6085 17.0791 17.3169 16.9531C17.0285 16.8272 16.702 16.7161 16.3374 16.62L15.1343 16.2919C14.319 16.0698 13.6727 15.7434 13.1954 15.3125C12.7214 14.8816 12.4845 14.3116 12.4845 13.6023C12.4845 13.0156 12.6436 12.5036 12.9617 12.0661C13.2799 11.6286 13.7108 11.2888 14.2544 11.0469C14.7979 10.8016 15.4111 10.679 16.0938 10.679C16.7832 10.679 17.3914 10.8 17.9184 11.0419C18.4487 11.2839 18.8663 11.617 19.1713 12.0412C19.4762 12.4621 19.6353 12.946 19.6485 13.4929H18.167Z" fill="#6E330C"/>
<defs>
<filter id="filter0_i_2243_7682" x="0" y="-8" width="32" height="40" filterUnits="userSpaceOnUse" color-interpolation-filters="sRGB">
<feFlood flood-opacity="0" result="BackgroundImageFix"/>
<feBlend mode="normal" in="SourceGraphic" in2="BackgroundImageFix" result="shape"/>
<feColorMatrix in="SourceAlpha" type="matrix" values="0 0 0 0 0 0 0 0 0 0 0 0 0 0 0 0 0 0 127 0" result="hardAlpha"/>
<feOffset dy="-8"/>
<feGaussianBlur stdDeviation="8"/>
<feComposite in2="hardAlpha" operator="arithmetic" k2="-1" k3="1"/>
<feColorMatrix type="matrix" values="0 0 0 0 1 0 0 0 0 0.706667 0 0 0 0 0.12 0 0 0 0.24 0"/>
<feBlend mode="normal" in2="shape" result="effect1_innerShadow_2243_7682"/>
</filter>
</defs>
</svg>
