<svg width="133" height="62" viewBox="0 0 133 62" fill="none" xmlns="http://www.w3.org/2000/svg">
<rect x="12" y="12" width="38" height="38" rx="12" fill="#3281FF"/>
<path d="M23.9024 24.9091H27.3158L30.9209 33.7045H31.0743L34.6794 24.9091H38.0928V38H35.4081V29.4794H35.2995L31.9117 37.9361H30.0835L26.6958 29.4474H26.5871V38H23.9024V24.9091Z" fill="white"/>
<path d="M62.896 40V23.08H65.608L71.824 37.072H71.08L77.296 23.08H79.984V40H77.176V27.448H78.04L72.352 40H70.504L64.816 27.448H65.704V40H62.896ZM89.1548 40.24C87.9068 40.24 86.8268 39.984 85.9148 39.472C85.0028 38.96 84.2908 38.232 83.7788 37.288C83.2828 36.344 83.0348 35.224 83.0348 33.928C83.0348 32.632 83.2828 31.52 83.7788 30.592C84.2908 29.648 85.0028 28.92 85.9148 28.408C86.8268 27.896 87.9068 27.64 89.1548 27.64C90.4028 27.64 91.4828 27.896 92.3948 28.408C93.3228 28.92 94.0348 29.648 94.5308 30.592C95.0428 31.52 95.2988 32.632 95.2988 33.928C95.2988 35.224 95.0428 36.344 94.5308 37.288C94.0348 38.232 93.3228 38.96 92.3948 39.472C91.4828 39.984 90.4028 40.24 89.1548 40.24ZM89.1548 37.936C90.0988 37.936 90.8508 37.608 91.4108 36.952C91.9708 36.28 92.2508 35.272 92.2508 33.928C92.2508 32.584 91.9708 31.584 91.4108 30.928C90.8508 30.272 90.0988 29.944 89.1548 29.944C88.2108 29.944 87.4588 30.272 86.8988 30.928C86.3388 31.584 86.0588 32.584 86.0588 33.928C86.0588 35.272 86.3388 36.28 86.8988 36.952C87.4588 37.608 88.2108 37.936 89.1548 37.936ZM102.605 40.24C101.518 40.24 100.494 40.112 99.5335 39.856C98.5895 39.6 97.7975 39.232 97.1575 38.752L97.9975 36.784C98.5895 37.216 99.2775 37.544 100.062 37.768C100.862 37.992 101.702 38.104 102.582 38.104C103.606 38.104 104.35 37.968 104.814 37.696C105.294 37.408 105.534 36.992 105.534 36.448C105.534 35.936 105.35 35.552 104.982 35.296C104.614 35.024 104.07 34.888 103.35 34.888H100.206V32.824H103.062C103.718 32.824 104.222 32.696 104.574 32.44C104.926 32.184 105.102 31.824 105.102 31.36C105.102 30.864 104.886 30.472 104.454 30.184C104.038 29.896 103.35 29.752 102.39 29.752C101.558 29.752 100.798 29.856 100.11 30.064C99.4215 30.256 98.7735 30.544 98.1655 30.928L97.3495 29.056C98.0055 28.592 98.7975 28.24 99.7255 28C100.67 27.76 101.694 27.64 102.798 27.64C104.414 27.64 105.654 27.936 106.518 28.528C107.382 29.12 107.814 29.96 107.814 31.048C107.814 31.784 107.558 32.416 107.046 32.944C106.55 33.472 105.878 33.8 105.03 33.928V33.592C106.022 33.656 106.806 33.952 107.382 34.48C107.958 35.008 108.246 35.72 108.246 36.616C108.246 37.72 107.758 38.6 106.782 39.256C105.806 39.912 104.414 40.24 102.605 40.24ZM110.868 40V27.88H119.964V30.232H113.868V40H110.868Z" fill="#333333"/>
</svg>
